<svg xmlns="http://www.w3.org/2000/svg" viewBox="0 0 1200 300" width="1200" height="300" fill="none" xml:space="preserve" font-family="'JetBrains Mono','SFMono-Regular','Fira Code',Consolas,Menlo,monospace">
  <rect width="1200" height="300" fill="#060709"/>

  <g opacity="0.13">
    <rect x="60" y="74" width="120" height="9" rx="4" fill="#1f6feb"/>
    <rect x="60" y="98" width="80" height="9" rx="4" fill="#8957e5"/>
    <rect x="92" y="122" width="150" height="9" rx="4" fill="#3fb950"/>
    <rect x="92" y="146" width="100" height="9" rx="4" fill="#db6d28"/>
    <rect x="60" y="170" width="130" height="9" rx="4" fill="#1f6feb"/>
    <rect x="92" y="194" width="70" height="9" rx="4" fill="#a371f7"/>
    <rect x="60" y="218" width="110" height="9" rx="4" fill="#3fb950"/>
  </g>

  <g opacity="0.13">
    <rect x="1020" y="74" width="120" height="9" rx="4" fill="#3fb950"/>
    <rect x="1052" y="98" width="88" height="9" rx="4" fill="#1f6feb"/>
    <rect x="990" y="122" width="150" height="9" rx="4" fill="#db6d28"/>
    <rect x="1052" y="146" width="100" height="9" rx="4" fill="#8957e5"/>
    <rect x="1020" y="170" width="120" height="9" rx="4" fill="#1f6feb"/>
    <rect x="1052" y="194" width="70" height="9" rx="4" fill="#3fb950"/>
    <rect x="1010" y="218" width="130" height="9" rx="4" fill="#a371f7"/>
  </g>

  <rect x="290" y="28" width="620" height="244" rx="12" fill="#0d1117" stroke="#21262d"/>
  <circle cx="318" cy="54" r="6" fill="#ff5f56"/>
  <circle cx="340" cy="54" r="6" fill="#ffbd2e"/>
  <circle cx="362" cy="54" r="6" fill="#27c93f"/>
  <text x="398" y="59" font-size="14" fill="#7d8590">lim.ts</text>
  <line x1="290" y1="78" x2="910" y2="78" stroke="#21262d"/>

  <g font-size="15" fill="#484f58" text-anchor="end">
    <text x="328" y="111">1</text>
    <text x="328" y="135">2</text>
    <text x="328" y="159">3</text>
    <text x="328" y="183">4</text>
    <text x="328" y="207">5</text>
    <text x="328" y="231">6</text>
    <text x="328" y="255">7</text>
  </g>

  <g font-size="17">
    <text x="348" y="111"><tspan fill="#ff7b72">const </tspan><tspan fill="#d2a8ff">developer </tspan><tspan fill="#c9d1d9">= {</tspan></text>
    <text x="372" y="135"><tspan fill="#79c0ff">name</tspan><tspan fill="#c9d1d9">: </tspan><tspan fill="#a5d6ff">"Lim"</tspan><tspan fill="#c9d1d9">,</tspan></text>
    <text x="372" y="159"><tspan fill="#79c0ff">role</tspan><tspan fill="#c9d1d9">: </tspan><tspan fill="#a5d6ff">"Full-stack / Next.js"</tspan><tspan fill="#c9d1d9">,</tspan></text>
    <text x="372" y="183"><tspan fill="#79c0ff">stack</tspan><tspan fill="#c9d1d9">: [</tspan><tspan fill="#a5d6ff">"TypeScript"</tspan><tspan fill="#c9d1d9">, </tspan><tspan fill="#a5d6ff">"React"</tspan><tspan fill="#c9d1d9">, </tspan><tspan fill="#a5d6ff">"Tailwind"</tspan><tspan fill="#c9d1d9">],</tspan></text>
    <text x="372" y="207"><tspan fill="#79c0ff">vision</tspan><tspan fill="#c9d1d9">: </tspan><tspan fill="#a5d6ff">"Looking into the future"</tspan><tspan fill="#c9d1d9">,</tspan></text>
    <text x="372" y="231"><tspan fill="#79c0ff">discord</tspan><tspan fill="#c9d1d9">: </tspan><tspan fill="#a5d6ff">"dimelim"</tspan><tspan fill="#c9d1d9">,</tspan></text>
    <text x="348" y="255"><tspan fill="#c9d1d9">}</tspan></text>
  </g>
</svg>
