<svg xmlns="http://www.w3.org/2000/svg" viewBox="0 0 1200 250" width="1200" height="250" fill="none" xml:space="preserve" font-family="'JetBrains Mono','SFMono-Regular','Fira Code',Consolas,Menlo,monospace">
  <rect width="1200" height="250" fill="#060709"/>

  <g opacity="0.12">
    <rect x="60" y="70" width="120" height="9" rx="4" fill="#1f6feb"/>
    <rect x="92" y="96" width="90" height="9" rx="4" fill="#8957e5"/>
    <rect x="60" y="122" width="150" height="9" rx="4" fill="#3fb950"/>
    <rect x="92" y="148" width="80" height="9" rx="4" fill="#db6d28"/>
    <rect x="60" y="174" width="130" height="9" rx="4" fill="#1f6feb"/>
    <rect x="92" y="200" width="70" height="9" rx="4" fill="#a371f7"/>
  </g>

  <g opacity="0.12">
    <rect x="1020" y="70" width="120" height="9" rx="4" fill="#3fb950"/>
    <rect x="1010" y="96" width="130" height="9" rx="4" fill="#1f6feb"/>
    <rect x="1052" y="122" width="88" height="9" rx="4" fill="#db6d28"/>
    <rect x="990" y="148" width="150" height="9" rx="4" fill="#8957e5"/>
    <rect x="1020" y="174" width="120" height="9" rx="4" fill="#1f6feb"/>
    <rect x="1052" y="200" width="70" height="9" rx="4" fill="#3fb950"/>
  </g>

  <rect x="290" y="24" width="620" height="200" rx="12" fill="#0d1117" stroke="#21262d"/>
  <circle cx="318" cy="50" r="6" fill="#ff5f56"/>
  <circle cx="340" cy="50" r="6" fill="#ffbd2e"/>
  <circle cx="362" cy="50" r="6" fill="#27c93f"/>
  <text x="398" y="55" font-size="14" fill="#7d8590">projects.ts</text>
  <line x1="290" y1="74" x2="910" y2="74" stroke="#21262d"/>

  <g font-size="15" fill="#484f58" text-anchor="end">
    <text x="328" y="108">1</text>
    <text x="328" y="136">2</text>
    <text x="328" y="164">3</text>
    <text x="328" y="192">4</text>
    <text x="328" y="220">5</text>
  </g>

  <g font-size="17">
    <text x="348" y="108"><tspan fill="#ff7b72">const </tspan><tspan fill="#d2a8ff">projects </tspan><tspan fill="#c9d1d9">= [</tspan></text>
    <text x="372" y="136"><tspan fill="#a5d6ff">"peekstore.com"</tspan><tspan fill="#c9d1d9">,</tspan></text>
    <text x="372" y="164"><tspan fill="#a5d6ff">"shielus.lat"</tspan><tspan fill="#c9d1d9">,</tspan></text>
    <text x="372" y="192"><tspan fill="#a5d6ff">"mineout"</tspan><tspan fill="#c9d1d9">,</tspan></text>
    <text x="348" y="220"><tspan fill="#c9d1d9">]</tspan></text>
  </g>

  <g font-size="15" fill="#6e7681">
    <text x="596" y="136">// where I work</text>
    <text x="596" y="164">// personal</text>
    <text x="596" y="192">// personal, coming soon</text>
  </g>
</svg>
